<svg xmlns="http://www.w3.org/2000/svg"  viewBox="0 0 48 48" width="48px" height="48px"><path d="M 24 4 C 12.977988 4 4 12.977996 4 24 C 4 35.022004 12.977988 44 24 44 C 35.022012 44 44 35.022004 44 24 C 44 12.977996 35.022012 4 24 4 z M 24 8 C 27.704511 8 31.066544 9.2983083 33.773438 11.398438 L 11.398438 33.773438 C 9.2983107 31.066543 8 27.704508 8 24 C 8 15.139753 15.139747 8 24 8 z M 36.601562 14.226562 C 38.70169 16.933457 40 20.295492 40 24 C 40 32.860247 32.860253 40 24 40 C 20.295489 40 16.933456 38.701691 14.226562 36.601562 L 36.601562 14.226562 z"/></svg>