<svg xmlns="http://www.w3.org/2000/svg"  viewBox="0 0 48 48"><path d="M 7.9785156 5.9804688 A 2.0002 2.0002 0 0 0 6.5859375 9.4140625 L 15.171875 18 L 10 18 A 2.0002 2.0002 0 1 0 10 22 L 19.753906 22 A 2.0002 2.0002 0 0 0 22 19.740234 L 22 10 A 2.0002 2.0002 0 1 0 18 10 L 18 15.171875 L 9.4140625 6.5859375 A 2.0002 2.0002 0 0 0 7.9785156 5.9804688 z M 39.960938 5.9804688 A 2.0002 2.0002 0 0 0 38.585938 6.5859375 L 30 15.171875 L 30 10 A 2.0002 2.0002 0 1 0 26 10 L 26 19.753906 A 2.0002 2.0002 0 0 0 28.259766 22 L 38 22 A 2.0002 2.0002 0 1 0 38 18 L 32.828125 18 L 41.414062 9.4140625 A 2.0002 2.0002 0 0 0 39.960938 5.9804688 z M 19.960938 25.980469 A 2.0002 2.0002 0 0 0 19.740234 26 L 10 26 A 2.0002 2.0002 0 1 0 10 30 L 15.171875 30 L 6.5859375 38.585938 A 2.0002 2.0002 0 1 0 9.4140625 41.414062 L 18 32.828125 L 18 38 A 2.0002 2.0002 0 1 0 22 38 L 22 28.246094 A 2.0002 2.0002 0 0 0 19.960938 25.980469 z M 27.978516 25.980469 A 2.0002 2.0002 0 0 0 26 28.259766 L 26 38 A 2.0002 2.0002 0 1 0 30 38 L 30 32.828125 L 38.585938 41.414062 A 2.0002 2.0002 0 1 0 41.414062 38.585938 L 32.828125 30 L 38 30 A 2.0002 2.0002 0 1 0 38 26 L 28.246094 26 A 2.0002 2.0002 0 0 0 27.978516 25.980469 z"/></svg>