<svg xmlns="http://www.w3.org/2000/svg"  viewBox="0 0 48 48" width="48px" height="48px"><path d="M17.5 12c.815 0 1.532.396 1.989 1H23V5.431c0-.883-.547-1.68-1.374-1.99-.481-.18-.977-.303-1.473-.361h-.001c-1.409-.163-3.47-.214-5.072 1.214-1.233 1.1-1.914 2.804-2.066 5.192-2.547.96-8.78 3.926-8.988 9.998C3.979 20.862 4.284 23.521 5.536 26H9v-2.5c0-.829.672-1.5 1.5-1.5h4.011c.456-.604 1.173-1 1.989-1 1.381 0 2.5 1.119 2.5 2.5 0 1.381-1.119 2.5-2.5 2.5-.815 0-1.532-.396-1.989-1H12v2.5c0 .829-.672 1.5-1.5 1.5H5.565c-.049.366-.084.743-.084 1.143 0 6.471 4.401 9.057 7.578 9.74.647 5.132 5.138 5.172 6.908 5.188.022 0 .045 0 .066 0 .477 0 .936-.05 1.372-.144C22.352 44.722 23 43.84 23 42.871V36h-3.511c-.456.604-1.173 1-1.989 1-1.381 0-2.5-1.119-2.5-2.5 0-1.381 1.119-2.5 2.5-2.5.815 0 1.532.396 1.989 1H23V16h-3.511c-.456.604-1.173 1-1.989 1-1.381 0-2.5-1.119-2.5-2.5C15 13.119 16.119 12 17.5 12zM43.975 19.449c-.146-4.257-3.252-6.983-5.975-8.565V18.5c0 .829-.672 1.5-1.5 1.5h-4.011c-.456.604-1.173 1-1.989 1-1.381 0-2.5-1.119-2.5-2.5 0-1.381 1.119-2.5 2.5-2.5.815 0 1.532.396 1.989 1H35V9.457c-.004-.002-.009-.004-.014-.005-.152-2.388-.833-4.093-2.066-5.192-1.604-1.429-3.663-1.378-5.072-1.214h-.001c-.495.057-.992.181-1.473.361C25.547 3.715 25 4.512 25 5.395V30h7v-1.511c-.604-.456-1-1.173-1-1.989 0-1.381 1.119-2.5 2.5-2.5s2.5 1.119 2.5 2.5c0 .815-.396 1.532-1 1.989V31.5c0 .829-.672 1.5-1.5 1.5H25v9.835c0 .969.648 1.851 1.595 2.056.436.094.895.144 1.373.144.021 0 .044 0 .066 0 1.771-.016 6.261-.057 6.908-5.188 3.177-.683 7.578-3.269 7.578-9.74 0-1.248-.279-2.35-.576-3.208C43.64 24.185 44.027 21.001 43.975 19.449z"/></svg>