<svg xmlns="http://www.w3.org/2000/svg"  viewBox="0 0 48 48" width="48px" height="48px"><path d="M 19.388672 5.0019531 C 18.773756 5.0054834 18.150314 5.044942 17.521484 5.1230469 C 10.697094 5.9702662 5.1745505 11.367451 4.171875 18.171875 C 3.6819078 21.498548 4.3584219 24.635174 5.7148438 27.355469 L 4.0429688 34.140625 A 1.50015 1.50015 0 0 0 5.8574219 35.957031 L 12.648438 34.287109 C 15.368982 35.642479 18.506526 36.317138 21.832031 35.826172 C 28.634317 34.822374 34.029726 29.301856 34.876953 22.478516 C 35.971423 13.67555 29.565762 6.0333486 21.207031 5.0976562 C 20.609979 5.0308211 20.003588 4.9984229 19.388672 5.0019531 z M 36.990234 14.509766 C 37.900234 17.149766 38.199609 19.999609 37.849609 22.849609 C 36.839609 31.029609 30.429531 37.589062 22.269531 38.789062 C 21.349531 38.929062 20.42 39 19.5 39 C 19.01 39 18.509531 38.979687 18.019531 38.929688 C 20.229531 40.969687 23.059922 42.360078 26.169922 42.830078 C 29.409922 43.300078 32.63 42.790312 35.5 41.320312 L 42.140625 42.960938 C 42.260625 42.990938 42.38 43 42.5 43 C 42.89 43 43.280547 42.850547 43.560547 42.560547 C 43.930547 42.190547 44.080937 41.650625 43.960938 41.140625 L 42.320312 34.5 C 43.790313 31.63 44.310078 28.419922 43.830078 25.169922 C 43.170078 20.709922 40.600234 16.879766 36.990234 14.509766 z M 13.5 15.998047 L 26.5 15.998047 C 27.329 15.998047 28 16.670047 28 17.498047 C 28 18.326047 27.329 18.998047 26.5 18.998047 L 13.5 18.998047 C 12.671 18.998047 12 18.326047 12 17.498047 C 12 16.670047 12.671 15.998047 13.5 15.998047 z M 13.5 22.998047 L 22.5 22.998047 C 23.329 22.998047 24 23.670047 24 24.498047 C 24 25.326047 23.329 25.998047 22.5 25.998047 L 13.5 25.998047 C 12.671 25.998047 12 25.326047 12 24.498047 C 12 23.670047 12.671 22.998047 13.5 22.998047 z"/></svg>