<svg xmlns="http://www.w3.org/2000/svg"  viewBox="0 0 48 48"><path d="M 7.9785156 5.9804688 A 2.0002 2.0002 0 0 0 6 8.2597656 L 6 16 A 2.0002 2.0002 0 1 0 10 16 L 10 12.828125 L 17.585938 20.414062 A 2.0002 2.0002 0 1 0 20.414062 17.585938 L 12.828125 10 L 16 10 A 2.0002 2.0002 0 1 0 16 6 L 8.2460938 6 A 2.0002 2.0002 0 0 0 7.9785156 5.9804688 z M 39.960938 5.9804688 A 2.0002 2.0002 0 0 0 39.740234 6 L 32 6 A 2.0002 2.0002 0 1 0 32 10 L 35.171875 10 L 27.585938 17.585938 A 2.0002 2.0002 0 1 0 30.414062 20.414062 L 38 12.828125 L 38 16 A 2.0002 2.0002 0 1 0 42 16 L 42 8.2460938 A 2.0002 2.0002 0 0 0 39.960938 5.9804688 z M 18.960938 26.980469 A 2.0002 2.0002 0 0 0 17.585938 27.585938 L 10 35.171875 L 10 32 A 2.0002 2.0002 0 1 0 6 32 L 6 39.753906 A 2.0002 2.0002 0 0 0 8.2597656 42 L 16 42 A 2.0002 2.0002 0 1 0 16 38 L 12.828125 38 L 20.414062 30.414062 A 2.0002 2.0002 0 0 0 18.960938 26.980469 z M 28.978516 26.980469 A 2.0002 2.0002 0 0 0 27.585938 30.414062 L 35.171875 38 L 32 38 A 2.0002 2.0002 0 1 0 32 42 L 39.753906 42 A 2.0002 2.0002 0 0 0 42 39.740234 L 42 32 A 2.0002 2.0002 0 1 0 38 32 L 38 35.171875 L 30.414062 27.585938 A 2.0002 2.0002 0 0 0 28.978516 26.980469 z"/></svg>